Coordinates
version=1
nRows=40
nColumns=38
inDegrees=no

Units are S.I. units (second, meters, Newtons, ...)
If the header above contains a line with 'inDegrees', this indicates whether rotational values are in degrees (yes) or radians (no).

endheader
time	pelvis_tilt	pelvis_list	pelvis_rotation	pelvis_tx	pelvis_ty	pelvis_tz	hip_flexion_r	hip_adduction_r	hip_rotation_r	knee_angle_r	ankle_angle_r	subtalar_angle_r	mtp_angle_r	hip_flexion_l	hip_adduction_l	hip_rotation_l	knee_angle_l	ankle_angle_l	subtalar_angle_l	mtp_angle_l	lumbar_extension	lumbar_bending	lumbar_rotation	arm_flex_r	arm_add_r	arm_rot_r	elbow_flex_r	pro_sup_r	wrist_flex_r	wrist_dev_r	arm_flex_l	arm_add_l	arm_rot_l	elbow_flex_l	pro_sup_l	wrist_flex_l	wrist_dev_l
9.4725	0.104595	0.0603893	3.1378	0.00978757	0.945635	-0.0027688	0.510009	0.106337	-0.0485843	0.479355	0.185891	0	0	0.038427	-0.0651785	-0.0279252	0.923795	-0.340873	0	0	-0.147002	0.0865048	-0.0917428	-0.315637	-0.570255	0.398373	1.95102	1.23892	0	0	0.343013	-0.391011	0.922445	2.00168	1.29099	0	0
9.48249	0.0902035	0.0661635	3.13149	0.0113058	0.940233	-0.00377155	0.501642	0.112842	-0.0539745	0.531036	0.199968	0	0	0.0530942	-0.0749398	-0.0327867	0.986199	-0.318261	0	0	-0.168266	0.0963546	-0.0734313	-0.281166	-0.569344	0.403003	1.95806	1.23941	0	0	0.329279	-0.392062	0.917177	1.97606	1.28445	0	0
9.49248	0.0755484	0.0715736	3.12541	0.0130431	0.934985	-0.00463954	0.491404	0.118548	-0.0590281	0.582097	0.219155	0	0	0.0697046	-0.0839306	-0.0368095	1.04741	-0.29058	0	0	-0.190468	0.105631	-0.0541545	-0.243287	-0.568199	0.408795	1.96472	1.24008	0	0	0.314085	-0.393029	0.910316	1.94953	1.27883	0	0
9.50248	0.0616312	0.0761487	3.11987	0.0149517	0.929972	-0.00537137	0.47966	0.123002	-0.0635766	0.630679	0.242711	0	0	0.0890874	-0.0916143	-0.0398721	1.10626	-0.259028	0	0	-0.212262	0.113779	-0.0347866	-0.202145	-0.566662	0.416106	1.97086	1.24106	0	0	0.296737	-0.394351	0.901459	1.923	1.27461	0	0
9.51247	0.0494063	0.0794887	3.11515	0.0169723	0.925265	-0.0059821	0.466831	0.125859	-0.067503	0.675211	0.269644	0	0	0.111982	-0.0975773	-0.0418996	1.16166	-0.224797	0	0	-0.232297	0.120315	-0.0161763	-0.158003	-0.564541	0.425229	1.97643	1.24253	0	0	0.276624	-0.396509	0.890279	1.89746	1.27213	0	0
9.52246	0.0396051	0.0813305	3.1115	0.0190362	0.920934	-0.00650014	0.453225	0.126968	-0.0706766	0.714436	0.298848	0	0	0.138814	-0.10159	-0.0429278	1.21257	-0.188971	0	0	-0.249445	0.124896	0.00104112	-0.111315	-0.561655	0.436268	1.98149	1.24464	0	0	0.253343	-0.39994	0.8766	1.87381	1.27161	0	0
9.53245	0.0326309	0.0815609	3.10901	0.0210694	0.917052	-0.00695998	0.438919	0.126382	-0.0729246	0.747408	0.32917	0	0	0.16956	-0.103603	-0.043148	1.25801	-0.152457	0	0	-0.262966	0.12734	0.0165595	-0.0627355	-0.557882	0.449089	1.98627	1.24752	0	0	0.22678	-0.40498	0.860443	1.85286	1.27308	0	0
9.54244	0.0285399	0.0802015	3.10764	0.0229989	0.913702	-0.00739477	0.423729	0.124302	-0.0740589	0.773445	0.35944	0	0	0.203732	-0.103713	-0.0428982	1.29704	-0.115975	0	0	-0.272569	0.127601	0.0304565	-0.0131434	-0.553191	0.463276	1.99116	1.25125	0	0	0.197157	-0.411809	0.842091	1.83519	1.27639	0	0
9.55244	0.0270998	0.0773799	3.10725	0.0247575	0.91097	-0.00783205	0.407257	0.121013	-0.0739314	0.792077	0.388494	0	0	0.240474	-0.102123	-0.0426097	1.32883	-0.080067	0	0	-0.27837	0.125748	0.0431106	0.0364603	-0.547656	0.478228	1.99668	1.25583	0	0	0.164967	-0.420461	0.822028	1.82116	1.28125	0	0
9.56243	0.0278928	0.0732926	3.10763	0.0262885	0.908946	-0.00829296	0.388986	0.116818	-0.0724661	0.803011	0.41518	0	0	0.278702	-0.0991028	-0.042736	1.35266	-0.0451467	0	0	-0.280792	0.121933	0.0549943	0.0851682	-0.541446	0.4934	2.00329	1.26119	0	0	0.130787	-0.430861	0.800743	1.81096	1.2874	0	0
9.57242	0.0304089	0.0681705	3.10851	0.0275458	0.907712	-0.00879209	0.368395	0.112009	-0.0696455	0.806122	0.438375	0	0	0.31724	-0.0949448	-0.0436943	1.36791	-0.0115552	0	0	-0.280432	0.116351	0.0666237	0.132154	-0.534787	0.508306	2.01137	1.26724	0	0	0.0952553	-0.442834	0.778744	1.80453	1.29448	0	0
9.58241	0.0341194	0.0622432	3.10967	0.0284925	0.907338	-0.00933898	0.345045	0.106839	-0.0654906	0.801485	0.457005	0	0	0.35492	-0.0899255	-0.0458186	1.37408	0.0203859	0	0	-0.277938	0.109216	0.0784246	0.17677	-0.527921	0.522645	2.0211	1.27383	0	0	0.0589475	-0.456139	0.756448	1.80165	1.30212	0	0
9.59241	0.0385192	0.0557268	3.11089	0.0291011	0.907874	-0.00993973	0.318648	0.101514	-0.0600688	0.789385	0.470072	0	0	0.390652	-0.0842888	-0.0493302	1.37083	0.0503572	0	0	-0.273926	0.100753	0.0906985	0.218544	-0.521074	0.536311	2.03243	1.28076	0	0	0.0223568	-0.470485	0.734171	1.80192	1.30989	0	0
9.6024	0.0431556	0.0488211	3.11203	0.0293546	0.909342	-0.0105974	0.2891	0.0961842	-0.0535095	0.770348	0.476668	0	0	0.423477	-0.0782369	-0.0543172	1.35795	0.0780425	0	0	-0.268935	0.0912012	0.103615	0.257176	-0.514441	0.549359	2.04516	1.28775	0	0	-0.014103	-0.485555	0.712141	1.80487	1.31735	0	0
9.61239	0.0476674	0.0416988	3.113	0.0292483	0.911733	-0.0113109	0.256547	0.0909393	-0.0459989	0.745165	0.476026	0	0	0.45263	-0.0719133	-0.0607357	1.33544	0.103156	0	0	-0.263392	0.0808007	0.117208	0.292528	-0.508174	0.562	2.0589	1.29451	0	0	-0.0501132	-0.501015	0.690486	1.80998	1.32406	0	0
9.62238	0.0518185	0.034504	3.11372	0.0287905	0.915001	-0.0120729	0.2214	0.0858094	-0.0377746	0.714878	0.467566	0	0	0.477586	-0.0653937	-0.068415	1.30342	0.125467	0	0	-0.257592	0.0697867	0.131406	0.324588	-0.502401	0.574535	2.07321	1.30074	0	0	-0.085439	-0.516526	0.669252	1.81675	1.3297	0	0
9.63237	0.0555212	0.0273609	3.11419	0.0280012	0.919061	-0.0128676	0.18433	0.0807841	-0.02912	0.680723	0.450942	0	0	0.498093	-0.0586938	-0.0770622	1.26224	0.14482	0	0	-0.251682	0.0583868	0.146077	0.353407	-0.497232	0.587286	2.08762	1.30624	0	0	-0.119909	-0.531746	0.648442	1.82475	1.33403	0	0
9.64237	0.0588362	0.0203877	3.11442	0.0269096	0.923801	-0.0136712	0.14622	0.075838	-0.0203525	0.644051	0.426078	0	0	0.514172	-0.051787	-0.0862679	1.21236	0.161163	0	0	-0.245676	0.0468267	0.161062	0.37905	-0.492772	0.600533	2.10173	1.31089	0	0	-0.15339	-0.546336	0.628049	1.83358	1.3369	0	0
9.65236	0.0619476	0.0137079	3.11441	0.025551	0.929076	-0.0144534	0.108079	0.0709564	-0.0118053	0.60624	0.393192	0	0	0.52608	-0.0446285	-0.0955199	1.15446	0.174563	0	0	-0.239467	0.0353387	0.176202	0.401559	-0.489124	0.614473	2.11518	1.31467	0	0	-0.185762	-0.559978	0.608093	1.84292	1.33828	0	0
9.66235	0.0651235	0.00745671	3.11423	0.0239629	0.934726	-0.0151807	0.0709628	0.0661548	-0.0038037	0.568618	0.352799	0	0	0.534263	-0.0371803	-0.104226	1.08935	0.185213	0	0	-0.232854	0.0241688	0.191363	0.420931	-0.486384	0.629183	2.12773	1.31765	0	0	-0.216877	-0.572394	0.588657	1.85253	1.33822	0	0
9.67234	0.0686628	0.00178609	3.11391	0.022182	0.940577	-0.01582	0.0358737	0.0614948	0.00336426	0.53241	0.305698	0	0	0.539296	-0.0294373	-0.111745	1.01804	0.19341	0	0	-0.22558	0.0135812	0.206455	0.437099	-0.484639	0.644604	2.13916	1.32008	0	0	-0.246529	-0.583358	0.569919	1.86215	1.33689	0	0
9.68233	0.0728627	-0.00313166	3.1135	0.0202423	0.946451	-0.0163416	0.0037191	0.0570922	0.00945843	0.49873	0.252966	0	0	0.541843	-0.0214515	-0.117425	0.941737	0.199522	0	0	-0.21736	0.00385729	0.221456	0.449911	-0.483969	0.660508	2.14934	1.32231	0	0	-0.274404	-0.592717	0.552196	1.87158	1.33451	0	0
9.69233	0.0779188	-0.00711822	3.11307	0.018173	0.952179	-0.0167249	-0.0248132	0.0531091	0.0143287	0.468546	0.195898	0	0	0.542535	-0.0133464	-0.120676	0.861839	0.203931	0	0	-0.208004	-0.00472785	0.236355	0.45924	-0.4844	0.67661	2.15815	1.32475	0	0	-0.300164	-0.600385	0.535824	1.88062	1.3314	0	0
9.70232	0.0838818	-0.0100118	3.11263	0.0159988	0.957604	-0.0169601	-0.0492989	0.0497256	0.0179221	0.44269	0.135949	0	0	0.541916	-0.00531171	-0.12105	0.779936	0.206984	0	0	-0.197478	-0.0119435	0.251138	0.46501	-0.485908	0.692591	2.16548	1.32772	0	0	-0.323447	-0.606342	0.521133	1.88913	1.3279	0	0
9.71231	0.0906563	-0.0116952	3.11223	0.0137412	0.962588	-0.0170469	-0.069565	0.0470978	0.020254	0.421872	0.0746641	0	0	0.540434	0.00242717	-0.118302	0.697793	0.208958	0	0	-0.185919	-0.0176383	0.265781	0.467193	-0.488427	0.708107	2.17125	1.33144	0	0	-0.343873	-0.610633	0.508441	1.89704	1.32433	0	0
9.7223	0.0980313	-0.0121201	3.11192	0.0114212	0.967011	-0.0169905	-0.0856448	0.0453193	0.021366	0.406681	0.0135986	0	0	0.538467	0.00964773	-0.112431	0.617327	0.210031	0	0	-0.173606	-0.0217654	0.280236	0.465812	-0.491858	0.722805	2.17539	1.336	0	0	-0.361038	-0.613355	0.498057	1.90428	1.32099	0	0
9.73229	0.105721	-0.0113238	3.11176	0.00906203	0.97077	-0.0167984	-0.0977195	0.0443923	0.0212879	0.397595	-0.0457597	0	0	0.536353	0.0161683	-0.103714	0.54055	0.210263	0	0	-0.160917	-0.0243953	0.294423	0.460926	-0.496078	0.736331	2.17786	1.34133	0	0	-0.374525	-0.614645	0.490287	1.91084	1.31805	0	0
9.74229	0.113398	-0.00943549	3.11185	0.00669198	0.973778	-0.0164781	-0.106066	0.0442118	0.0200149	0.394978	-0.102052	0	0	0.534398	0.0218804	-0.0927026	0.46949	0.209583	0	0	-0.148297	-0.0257161	0.308221	0.45265	-0.500945	0.748356	2.17863	1.34721	0	0	-0.383919	-0.614662	0.485417	1.91671	1.31565	0	0
9.75228	0.12072	-0.00667211	3.1123	0.00434423	0.975968	-0.0160356	-0.111023	0.0445659	0.0175021	0.399069	-0.154103	0	0	0.532878	0.0267655	-0.0801985	0.406111	0.207803	0	0	-0.136219	-0.0260194	0.32146	0.441162	-0.506298	0.758596	2.17766	1.3532	0	0	-0.38884	-0.613559	0.483691	1.92187	1.31383	0	0
9.76227	0.127343	-0.00332232	3.11325	0.00205407	0.97729	-0.0154766	-0.112978	0.0451507	0.0136782	0.409964	-0.200966	0	0	0.532023	0.030898	-0.0671851	0.352223	0.204663	0	0	-0.125162	-0.0256763	0.333925	0.426711	-0.511952	0.76684	2.17486	1.35874	0	0	-0.388988	-0.611472	0.485279	1.9263	1.31255	0	0
9.77226	0.132923	0.000278386	3.11483	-0.000143627	0.977713	-0.0148077	-0.112367	0.0456011	0.00846629	0.427597	-0.241963	0	0	0.531981	0.0344335	-0.0547155	0.309398	0.199907	0	0	-0.115598	-0.0251038	0.345348	0.409633	-0.517696	0.77297	2.17011	1.36322	0	0	-0.384178	-0.608498	0.49024	1.92999	1.31172	0	0
9.78225	0.137122	0.00377999	3.11715	-0.00221597	0.977226	-0.014037	-0.109663	0.04553	0.0018048	0.451739	-0.276693	0	0	0.532796	0.037584	-0.0437719	0.278868	0.193379	0	0	-0.107986	-0.0247257	0.355427	0.390334	-0.523305	0.776952	2.16329	1.36615	0	0	-0.374348	-0.604694	0.498523	1.93289	1.31117	0	0
9.79225	0.139625	0.00684643	3.12034	-0.004133	0.975841	-0.0131746	-0.105361	0.044564	-0.00633922	0.48201	-0.30499	0	0	0.534381	0.0405882	-0.0351277	0.261437	0.185123	0	0	-0.102759	-0.0249386	0.363847	0.369268	-0.528556	0.778816	2.15424	1.3672	0	0	-0.359548	-0.600077	0.509977	1.93499	1.31071	0	0
9.80224	0.14015	0.0091778	3.12447	-0.00586852	0.97359	-0.0122337	-0.0999412	0.0423759	-0.0159467	0.517919	-0.326825	0	0	0.536514	0.0436802	-0.0292517	0.257397	0.175465	0	0	-0.100301	-0.0260842	0.370289	0.346921	-0.533232	0.778661	2.14286	1.36628	0	0	-0.339939	-0.594631	0.524355	1.93626	1.31015	0	0
9.81223	0.13847	0.0105274	3.12961	-0.00740044	0.970528	-0.0112312	-0.0938421	0.0387142	-0.0269192	0.558909	-0.34219	0	0	0.538843	0.0470629	-0.0262683	0.26648	0.165067	0	0	-0.100933	-0.0284281	0.374447	0.323786	-0.537132	0.77664	2.12903	1.36351	0	0	-0.315781	-0.588318	0.541321	1.93665	1.30935	0	0
9.82222	0.134429	0.0107118	3.13577	-0.00871033	0.966735	-0.0101872	-0.0874135	0.0334237	-0.0390707	0.604391	-0.351041	0	0	0.54091	0.0508959	-0.0259693	0.287844	0.154954	0	0	-0.104893	-0.0321438	0.375998	0.300394	-0.540063	0.772992	2.11267	1.35916	0	0	-0.287462	-0.581077	0.560413	1.93615	1.30824	0	0
9.83222	0.127969	0.00961496	3.14295	-0.00978282	0.962316	-0.00912397	-0.0808702	0.0264531	-0.0521283	0.653759	-0.353306	0	0	0.542202	0.0552938	-0.027875	0.320117	0.146471	0	0	-0.112308	-0.0373083	0.374629	0.277254	-0.541859	0.767995	2.09377	1.35361	0	0	-0.255458	-0.572839	0.58109	1.93473	1.30678	0	0
9.84221	0.119153	0.00719311	3.15108	-0.0106058	0.957398	-0.00806488	-0.074261	0.0178601	-0.0657335	0.706368	-0.348982	0	0	0.542235	0.0603143	-0.0313845	0.361541	0.141196	0	0	-0.123159	-0.0438973	0.370055	0.254829	-0.542385	0.761958	2.07234	1.34737	0	0	-0.220329	-0.563546	0.602742	1.93239	1.30502	0	0
9.8522	0.108187	0.0034807	3.16005	-0.0111704	0.952125	-0.00703314	-0.0674528	0.00781102	-0.0794497	0.76151	-0.338263	0	0	0.540599	0.0659455	-0.0358998	0.410099	0.140673	0	0	-0.137265	-0.0517873	0.362105	0.233437	-0.541568	0.755135	2.04855	1.34102	0	0	-0.182627	-0.553166	0.624801	1.92913	1.30302	0	0
9.86219	0.0954215	-0.00140383	3.16966	-0.011472	0.946655	-0.00605099	-0.0601398	-0.00342502	-0.0927939	0.81839	-0.321616	0	0	0.53694	0.0721013	-0.0408797	0.46354	0.146061	0	0	-0.154265	-0.0607571	0.350735	0.213235	-0.539401	0.747708	2.0227	1.33515	0	0	-0.142904	-0.541707	0.646747	1.92503	1.30093	0	0
